<svg width="100" height="100" viewBox="0 0 100 100" xmlns="http://www.w3.org/2000/svg">
  <defs>
    <clipPath id="torn-edge">
      <path d="M0,2 Q3,0 7,3 Q12,1 18,4 Q23,2 29,5 Q35,3 41,6 Q47,4 53,7 Q59,5 65,8 Q71,6 76,9 Q82,7 88,10 Q94,8 97,11 L100,9 L100,15 Q98,20 100,25 Q98,30 100,35 Q98,40 100,45 Q98,50 100,55 Q98,60 100,65 Q98,70 100,75 Q98,80 100,85 Q98,90 100,95 Q97,98 93,100 Q88,97 83,99 Q78,96 73,98 Q68,95 63,97 Q58,94 53,96 Q48,93 43,95 Q38,92 33,94 Q28,91 23,93 Q18,90 13,92 Q8,89 3,91 Q1,88 0,85 Z"/>
    </clipPath>
  </defs>
</svg>
